<svg width="96" xmlns="http://www.w3.org/2000/svg" height="96" viewBox="0 0 96 96" xmlns:xlink="http://www.w3.org/1999/xlink">
<path style="fill:#FFC0CB;" d="m16.746,60.162l44.658-44.658 19.107,19.107-44.658,44.658-19.107-19.107zm46.713-33.888l-2.094-2.091-35.943,35.94 2.094,2.094 35.943-35.943zm4.188,4.188l-2.094-2.094-35.943,35.946 2.091,2.091 35.946-35.943zm4.188,4.188l-2.094-2.094-35.943,35.943 2.094,2.094 35.943-35.943zm-1.878-27.582c2.343-2.349 6.135-2.364 8.46-.039l10.536,10.536c2.325,2.325 2.31,6.114-.036,8.46l-6.51,6.51-18.96-18.96 6.51-6.507zm-54.681,55.581l18.09,18.09-15.852,5.631-7.869-7.869 5.631-15.852zm-.765,24.702l-9.198,3.351 3.351-9.198 5.847,5.847z"/>
</svg>
