<svg width="96" xmlns="http://www.w3.org/2000/svg" height="96" viewBox="0 0 96 96" xmlns:xlink="http://www.w3.org/1999/xlink">
<path style="fill:#FFC0CB;" d="m58.761,48.003l18.288,18.288c1.188,1.188 1.188,3.117 0,4.305l-6.453,6.453c-1.188,1.188-3.114,1.188-4.305,0l-18.291-18.288-18.291,18.288c-1.188,1.188-3.114,1.188-4.302,0l-6.456-6.453c-1.188-1.188-1.188-3.114 0-4.305l18.291-18.288-18.291-18.291c-1.188-1.188-1.188-3.117 0-4.305l6.459-6.453c1.188-1.188 3.114-1.188 4.302,0l18.288,18.291 18.291-18.291c1.188-1.188 3.114-1.188 4.305,0l6.453,6.456c1.188,1.188 1.188,3.114 0,4.305l-18.288,18.288z"/>
</svg>
